<svg viewBox="0 0 30 30" xmlns="http://www.w3.org/2000/svg"><path fill="#fff"/><path d="m25.01 15.42c0 5.53-4.48 10.01-10.01 10.01s-10.01-4.49-10.01-10.01z" fill="#ac52db"/><path d="m20.12 20.44h-4.99c-2.78 0-5.04-2.25-5.04-5.03h4.99c2.78 0 5.04 2.25 5.04 5.03z" fill="#ff9200"/><path d="m5.04 11.4c0 2.22 1.8 4.03 4.02 4.03s4.02-1.8 4.02-4.03-1.8-4.03-4.02-4.03h-4.02z" fill="#ffc900"/><path d="m5.04 9.46c0 1.15.93 2.08 2.08 2.08s2.08-.93 2.08-2.08-.93-2.08-2.08-2.08h-2.08z" fill="#ff9200"/></svg>
