<svg xmlns="http://www.w3.org/2000/svg" xmlns:xlink="http://www.w3.org/1999/xlink" width="122.308" height="29.109" viewBox="0 0 122.308 29.109">
  <defs>
    <linearGradient id="linear-gradient" x1="0.856" y1="0.309" x2="0.45" y2="0.816" gradientUnits="objectBoundingBox">
      <stop offset="0" stop-color="#51d85d"/>
      <stop offset="1" stop-color="#3fa649"/>
    </linearGradient>
    <linearGradient id="linear-gradient-2" x1="0.965" y1="2.326" x2="0.271" y2="2.336" xlink:href="#linear-gradient"/>
    <linearGradient id="linear-gradient-3" x1="1.021" y1="11.406" x2="0.396" y2="10.882" xlink:href="#linear-gradient"/>
  </defs>
  <g id="Group_11" data-name="Group 11" transform="translate(-15.143 -18.322)">
    <g id="Group_8" data-name="Group 8" transform="translate(118.836 29.303)">
      <path id="Path_645_1_" d="M106.762,70.362a4.386,4.386,0,0,1-.908,3.027,3.474,3.474,0,0,1-2.724,1.059,4.74,4.74,0,0,1-2.043-.454A2.836,2.836,0,0,1,99.8,72.783l1.967-1.589a.876.876,0,0,0,.378.53.859.859,0,0,0,.605.227.629.629,0,0,0,.757-.454,5.632,5.632,0,0,0,.151-1.967V63.4h3.027Z" transform="translate(-99.8 -63.324)" fill="#48bf53"/>
      <path id="Path_646_1_" d="M121.14,68.748a4.941,4.941,0,0,1-1.74,4.086c-1.135.908-2.951,1.362-5.373,1.362H111V63.3h2.573c2.724,0,4.616.454,5.827,1.286a5,5,0,0,1,1.74,4.162m-3.178,0a2.915,2.915,0,0,0-.908-2.346,4.494,4.494,0,0,0-2.724-.757h-.3V71.7h.3a4.038,4.038,0,0,0,2.724-.757,2.416,2.416,0,0,0,.908-2.195" transform="translate(-102.525 -63.3)" fill="#48bf53"/>
    </g>
    <g id="Group_9" data-name="Group 9" transform="translate(53 29)">
      <rect id="Rectangle_3" data-name="Rectangle 3" width="1.589" height="10.897" transform="translate(0 0.303)" fill="#fff"/>
      <path id="Path_18" data-name="Path 18" d="M25.721,70.186,17.7,63.376v10.9h1.589V67.386l8.021,6.735V63.3H25.721Z" transform="translate(-13.992 -62.997)" fill="#fff"/>
      <path id="Path_19" data-name="Path 19" d="M38.808,68.927a6.312,6.312,0,0,0-.908-.605,4.629,4.629,0,0,0-.908-.378c-.605-.227-1.059-.454-1.438-.605a3.408,3.408,0,0,1-.757-.681,1.278,1.278,0,0,1-.227-.757,1.215,1.215,0,0,1,.378-.832,1.566,1.566,0,0,1,1.135-.378,1.893,1.893,0,0,1,.984.227,1.787,1.787,0,0,1,.681.605,2.016,2.016,0,0,1,.454.757l.076.151,1.362-.757v-.227a4.939,4.939,0,0,0-.757-1.135,3.161,3.161,0,0,0-1.135-.832,3.518,3.518,0,0,0-1.589-.378,3.852,3.852,0,0,0-1.665.378,3,3,0,0,0-1.589,2.573,2.165,2.165,0,0,0,.3,1.286,3.028,3.028,0,0,0,.757.908,4.29,4.29,0,0,0,.984.605,4.629,4.629,0,0,0,.908.378l1.135.454a2.365,2.365,0,0,1,.832.681,1.479,1.479,0,0,1,.3,1.059,1.54,1.54,0,0,1-.454,1.135,1.78,1.78,0,0,1-1.286.454,2.417,2.417,0,0,1-1.059-.227,2.618,2.618,0,0,1-.832-.757h0a7.37,7.37,0,0,1-.757-1.135l-.151-.3-1.286.832.076.076a7.107,7.107,0,0,0,.908,1.362,3.5,3.5,0,0,0,1.362.984,4.124,4.124,0,0,0,1.665.378A3.843,3.843,0,0,0,37.6,74a4.825,4.825,0,0,0,1.059-.605,3.121,3.121,0,0,0,.757-.984,3.565,3.565,0,0,0,.3-1.286,2.165,2.165,0,0,0-.3-1.286A2.721,2.721,0,0,0,38.808,68.927Z" transform="translate(-17.544 -62.949)" fill="#fff"/>
      <rect id="Rectangle_4" data-name="Rectangle 4" width="1.589" height="10.897" transform="translate(23.837 0.303)" fill="#fff"/>
      <path id="Path_20" data-name="Path 20" d="M53.924,69.938h3.481a5.254,5.254,0,0,1-.378.984,3.028,3.028,0,0,1-.757.908,2.439,2.439,0,0,1-1.059.605,3.666,3.666,0,0,1-1.362.227,3.494,3.494,0,0,1-1.967-.53,4.353,4.353,0,0,1-1.438-1.438,4.5,4.5,0,0,1,0-4.238,4.353,4.353,0,0,1,1.438-1.438,4.233,4.233,0,0,1,1.967-.53,4.505,4.505,0,0,1,2.043.454,3.206,3.206,0,0,1,1.362,1.286l.076.151,1.135-1.059-.076-.076a4.633,4.633,0,0,0-1.135-1.286A4.072,4.072,0,0,0,55.74,63.2a6.318,6.318,0,0,0-4.086.076,5.777,5.777,0,0,0-1.74,1.135,4.6,4.6,0,0,0-1.135,1.816A5.514,5.514,0,0,0,48.4,68.5a7.134,7.134,0,0,0,.378,2.27,7.369,7.369,0,0,0,1.135,1.816,4.343,4.343,0,0,0,1.74,1.135,5.371,5.371,0,0,0,2.195.378,4.939,4.939,0,0,0,2.195-.454,4.692,4.692,0,0,0,1.665-1.286,5.284,5.284,0,0,0,.984-1.816,6.565,6.565,0,0,0,.378-2.119v-.151H53.848v1.665Z" transform="translate(-21.46 -62.9)" fill="#fff"/>
      <path id="Path_21" data-name="Path 21" d="M71.913,67.538H66.389V63.3H64.8V74.273h1.589V69.051h5.524v5.221H73.5V63.3H71.913Z" transform="translate(-25.45 -62.997)" fill="#fff"/>
      <path id="Path_22" data-name="Path 22" d="M77.7,64.813h2.8v9.459h1.513V64.813h2.8V63.3H77.7Z" transform="translate(-28.588 -62.997)" fill="#fff"/>
      <path id="Path_23" data-name="Path 23" d="M94.713,69.859a2.066,2.066,0,0,0-.681-.908,6.313,6.313,0,0,0-.908-.605,4.629,4.629,0,0,0-.908-.378c-.605-.227-1.059-.454-1.438-.605a3.408,3.408,0,0,1-.757-.681,1.278,1.278,0,0,1-.227-.757,1.215,1.215,0,0,1,.378-.832,1.566,1.566,0,0,1,1.135-.378,1.893,1.893,0,0,1,.984.227,1.787,1.787,0,0,1,.681.605,2.016,2.016,0,0,1,.454.757l.076.151,1.362-.757-.076-.151a4.939,4.939,0,0,0-.757-1.135,3.161,3.161,0,0,0-1.135-.832,3.518,3.518,0,0,0-1.589-.378,3.852,3.852,0,0,0-1.665.378,3,3,0,0,0-1.589,2.573,2.165,2.165,0,0,0,.3,1.286,3.028,3.028,0,0,0,.757.908,4.291,4.291,0,0,0,.984.605,4.629,4.629,0,0,0,.908.378l1.135.454a2.365,2.365,0,0,1,.832.681,1.479,1.479,0,0,1,.3,1.059,1.54,1.54,0,0,1-.454,1.135,1.78,1.78,0,0,1-1.286.454,2.417,2.417,0,0,1-1.059-.227,2.618,2.618,0,0,1-.832-.757h0a7.37,7.37,0,0,1-.757-1.135v-.378l-1.286.832.076.076a7.108,7.108,0,0,0,.908,1.362,3.5,3.5,0,0,0,1.362.984,4.124,4.124,0,0,0,1.665.378,3.844,3.844,0,0,0,1.286-.227,4.824,4.824,0,0,0,1.059-.605,3.121,3.121,0,0,0,.757-.984,2.885,2.885,0,0,0,0-2.573Z" transform="translate(-30.997 -62.973)" fill="#fff"/>
    </g>
    <g id="Group_10" data-name="Group 10" transform="translate(-40 -19.678)">
      <path id="Path_17" data-name="Path 17" d="M75.3,37.5a7.745,7.745,0,0,0,10.938-1.563A7.845,7.845,0,0,0,84.738,25Z" transform="translate(-0.558 22.188)" fill="url(#linear-gradient)"/>
      <path id="Path_24" data-name="Path 24" d="M52.229,38.188a.884.884,0,0,1-1.188-.125c-.063,0-.063-.063-.125-.125L45.166,33.5A7.372,7.372,0,0,0,57.1,42.126h0l3.25-4.25,5.688-7.25A2.16,2.16,0,0,0,66.479,29a2.393,2.393,0,0,0-.813-1.5l-2.25-1.75L62.479,25s-7.625,9.875-10.25,13.188" transform="translate(11.2 22.188)" fill="#fff"/>
      <path id="Path_25" data-name="Path 25" d="M53.088,36.545,48.4,32.858l2.938-3.688a2.375,2.375,0,0,1,3.313-.375l2.813,2.25Z" transform="translate(9.529 20.955)" fill="url(#linear-gradient-2)"/>
      <path id="Path_26" data-name="Path 26" d="M77.371,15.138a2.887,2.887,0,0,1-.438-.438l-3.188,2.938a1.535,1.535,0,0,0-.938-.313,1.8,1.8,0,0,0-1.125.438l-3-2a1.064,1.064,0,0,0,.063-.438,1.625,1.625,0,1,0-3.25,0,1.73,1.73,0,0,0,.188.813L63.308,18.45c0-.125-.062-.188-.125-.188a2.807,2.807,0,1,0,.5,3.938,2.923,2.923,0,0,0,.125-3.313l2.375-2.313a1.419,1.419,0,0,0,1,.375,1.759,1.759,0,0,0,1.313-.625l2.875,2a2.247,2.247,0,0,0-.125.688,1.625,1.625,0,1,0,3.25,0,2.035,2.035,0,0,0-.25-.875Zm-10.25,1.188a1,1,0,1,1,1-1A1.028,1.028,0,0,1,67.121,16.325Zm5.688,3.625a1,1,0,1,1,1-1A.987.987,0,0,1,72.809,19.95Z" transform="translate(5.683 26.425)" fill="#fff"/>
      <circle id="Ellipse_8" data-name="Ellipse 8" cx="2" cy="2" r="2" transform="translate(82.242 38)" fill="url(#linear-gradient-3)"/>
    </g>
  </g>
</svg>

